[2026-03-19T18:40:51Z][INFO] job start: render_log=C:\Users\Administrator\OneDrive\Documents\EchoesEngine_complete\EchoesEngine\jobs\job-1\render.log
[2026-03-19T18:40:51Z][INFO] audio loading: source=C:\Users\Administrator\OneDrive\Documents\EchoesEngine_complete\EchoesEngine\jobs\synthetic-test-0p3s.wav
[2026-03-19T18:40:51Z][INFO] audio loading ready: source=C:\Users\Administrator\OneDrive\Documents\EchoesEngine_complete\EchoesEngine\jobs\synthetic-test-0p3s.wav, analysis=C:\Users\Administrator\OneDrive\Documents\EchoesEngine_complete\EchoesEngine\jobs\synthetic-test-0p3s.wav
[2026-03-19T18:40:51Z][INFO] audio loading complete: samples=14400, sample_rate=48000
[2026-03-19T18:40:51Z][INFO] audio analysis complete: bass=0.000184, mid=0.999816, treble=0.000000, energy=0.088377, beat=false, tempo=96.000000
[2026-03-19T18:40:51Z][INFO] audio timeline complete: duration=0.300000s, total_frames=9, fps=30
[2026-03-19T18:40:51Z][INFO] render request overrides: width=1280, height=720, requested_duration=0.000000
[2026-03-19T18:40:51Z][INFO] scene generation start: scene_id=nebula_space
[2026-03-19T18:40:51Z][INFO] scene generation complete: scene_name=nebula_space
[2026-03-19T18:40:51Z][INFO] renderer start: backend=Vulkan
[2026-03-19T18:40:51Z][INFO] renderer start complete
[2026-03-19T18:40:51Z][INFO] scene render bootstrap complete
[2026-03-19T18:40:51Z][INFO] frame generation start: prompt="Autonomous EchoesEngine render 1 | style=nebula | camera_motion=orbital sweep | duration=37.5s", style=Nebula Bloom
[2026-03-19T18:40:51Z][INFO] frame generation complete: ai job ready
[2026-03-19T18:40:51Z][INFO] frame export start: exporting scene-driven frames to C:\Users\Administrator\OneDrive\Documents\EchoesEngine_complete\EchoesEngine\renders\job-1
[2026-03-19T18:40:51Z][INFO] frame rendering: index=0/9
[2026-03-19T18:40:58Z][INFO] frame export complete: 9 frames captured
[2026-03-19T18:40:58Z][INFO] encoding start: output=C:\Users\Administrator\OneDrive\Documents\EchoesEngine_complete\EchoesEngine\renders\job-1\video.mp4
ffmpeg version 8.1-essentials_build-www.gyan.dev Copyright (c) 2000-2026 the FFmpeg developers
  built with gcc 15.2.0 (Rev11, Built by MSYS2 project)
  configuration: --enable-gpl --enable-version3 --enable-static --disable-w32threads --disable-autodetect --enable-cairo --enable-fontconfig --enable-iconv --enable-gnutls --enable-libxml2 --enable-gmp --enable-bzlib --enable-lzma --enable-zlib --enable-libsrt --enable-libssh --enable-libzmq --enable-avisynth --enable-sdl2 --enable-libwebp --enable-libx264 --enable-libx265 --enable-libxvid --enable-libaom --enable-libopenjpeg --enable-libvpx --enable-mediafoundation --enable-libass --enable-libfreetype --enable-libfribidi --enable-libharfbuzz --enable-libvidstab --enable-libvmaf --enable-libzimg --enable-amf --enable-cuda-llvm --enable-cuvid --enable-dxva2 --enable-d3d11va --enable-d3d12va --enable-ffnvcodec --enable-libvpl --enable-nvdec --enable-nvenc --enable-vaapi --enable-openal --enable-libgme --enable-libopenmpt --enable-libopencore-amrwb --enable-libmp3lame --enable-libtheora --enable-libvo-amrwbenc --enable-libgsm --enable-libopencore-amrnb --enable-libopus --enable-libspeex --enable-libvorbis --enable-librubberband
  libavutil      60. 26.100 / 60. 26.100
  libavcodec     62. 28.100 / 62. 28.100
  libavformat    62. 12.100 / 62. 12.100
  libavdevice    62.  3.100 / 62.  3.100
  libavfilter    11. 14.100 / 11. 14.100
  libswscale      9.  5.100 /  9.  5.100
  libswresample   6.  3.100 /  6.  3.100
Input #0, image2, from 'C:\Users\Administrator\OneDrive\Documents\EchoesEngine_complete\EchoesEngine\renders\job-1\frames\frame_%04d.ppm':
  Duration: 00:00:00.30, start: 0.000000, bitrate: N/A
  Stream #0:0: Video: ppm, rgb24, 1280x720, 30 fps, 30 tbr, 30 tbn
Stream mapping:
  Stream #0:0 -> #0:0 (ppm (native) -> h264 (libx264))
Press [q] to stop, [?] for help
[libx264 @ 0000022c6f44d280] using cpu capabilities: MMX2 SSE2Fast SSSE3 SSE4.2 AVX FMA3 BMI2 AVX2
[libx264 @ 0000022c6f44d280] profile High, level 3.1, 4:2:0, 8-bit
[libx264 @ 0000022c6f44d280] 264 - core 165 r3223 0480cb0 - H.264/MPEG-4 AVC codec - Copyleft 2003-2025 - http://www.videolan.org/x264.html - options: cabac=1 ref=3 deblock=1:0:0 analyse=0x3:0x113 me=hex subme=7 psy=1 psy_rd=1.00:0.00 mixed_ref=1 me_range=16 chroma_me=1 trellis=1 8x8dct=1 cqm=0 deadzone=21,11 fast_pskip=1 chroma_qp_offset=-2 threads=12 lookahead_threads=2 sliced_threads=0 nr=0 decimate=1 interlaced=0 bluray_compat=0 constrained_intra=0 bframes=3 b_pyramid=2 b_adapt=1 b_bias=0 direct=1 weightb=1 open_gop=0 weightp=2 keyint=30 keyint_min=3 scenecut=40 intra_refresh=0 rc_lookahead=30 rc=crf mbtree=1 crf=20.0 qcomp=0.60 qpmin=0 qpmax=69 qpstep=4 ip_ratio=1.40 aq=1:1.00
Output #0, mp4, to 'C:\Users\Administrator\OneDrive\Documents\EchoesEngine_complete\EchoesEngine\renders\job-1\video.mp4':
  Metadata:
    encoder         : Lavf62.12.100
  Stream #0:0: Video: h264 (avc1 / 0x31637661), yuv420p(tv, progressive), 1280x720, q=2-31, 30 fps, 15360 tbn
    Metadata:
      encoder         : Lavc62.28.100 libx264
    Side data:
      CPB properties: bitrate max/min/avg: 0/0/0 buffer size: 0 vbv_delay: N/A
[mp4 @ 0000022c6f44ad80] Starting second pass: moving the moov atom to the beginning of the file
[out#0/mp4 @ 0000022c6f448840] video:28KiB audio:0KiB subtitle:0KiB other streams:0KiB global headers:0KiB muxing overhead: 3.144676%
frame=    9 fps=0.0 q=-1.0 Lsize=      29KiB time=00:00:00.23 bitrate=1016.6kbits/s speed=2.84x elapsed=0:00:00.08    
[libx264 @ 0000022c6f44d280] frame I:1     Avg QP:17.08  size: 14000
[libx264 @ 0000022c6f44d280] frame P:8     Avg QP:18.42  size:  1757
[libx264 @ 0000022c6f44d280] mb I  I16..4: 55.2% 38.7%  6.1%
[libx264 @ 0000022c6f44d280] mb P  I16..4:  0.6%  0.1%  0.0%  P16..4: 17.0%  2.3%  1.5%  0.0%  0.0%    skip:78.6%
[libx264 @ 0000022c6f44d280] 8x8 transform intra:37.5% inter:77.1%
[libx264 @ 0000022c6f44d280] coded y,uvDC,uvAC intra: 20.4% 67.6% 3.2% inter: 1.5% 5.5% 0.0%
[libx264 @ 0000022c6f44d280] i16 v,h,dc,p:  3% 18%  1% 79%
[libx264 @ 0000022c6f44d280] i8 v,h,dc,ddl,ddr,vr,hd,vl,hu: 17% 28% 14%  6%  9%  5% 10%  5%  6%
[libx264 @ 0000022c6f44d280] i4 v,h,dc,ddl,ddr,vr,hd,vl,hu: 28% 30% 19%  3% 10%  3%  5%  1%  1%
[libx264 @ 0000022c6f44d280] i8c dc,h,v,p: 35% 29% 12% 24%
[libx264 @ 0000022c6f44d280] Weighted P-Frames: Y:0.0% UV:0.0%
[libx264 @ 0000022c6f44d280] ref P L0: 88.3%  0.1%  9.1%  2.6%
[libx264 @ 0000022c6f44d280] kb/s:748.24
[2026-03-19T18:40:58Z][INFO] encoding complete: video=C:\Users\Administrator\OneDrive\Documents\EchoesEngine_complete\EchoesEngine\renders\job-1\video.mp4
[2026-03-19T18:40:58Z][INFO] job complete: scene=nebula_space, style=Nebula Bloom, camera=(8.152980, 48.969322, 201.800262)
[2026-03-20T04:29:10Z][INFO] job start: render_log=C:\Users\Administrator\OneDrive\Documents\EchoesEngine_complete\EchoesEngine\jobs\job-1\render.log
[2026-03-20T04:29:10Z][INFO] audio loading: source=C:\Users\Administrator\OneDrive\Documents\EchoesEngine_complete\EchoesEngine\jobs/synthetic-test-0p3s.wav
[2026-03-20T04:29:10Z][INFO] audio loading ready: source=C:\Users\Administrator\OneDrive\Documents\EchoesEngine_complete\EchoesEngine\jobs/synthetic-test-0p3s.wav, analysis=C:\Users\Administrator\OneDrive\Documents\EchoesEngine_complete\EchoesEngine\jobs/synthetic-test-0p3s.wav
[2026-03-20T04:29:10Z][INFO] audio loading complete: samples=14400, sample_rate=48000
[2026-03-20T04:29:10Z][INFO] audio analysis complete: bass=0.000184, mid=0.999816, treble=0.000000, energy=0.088377, beat=false, tempo=96.000000
[2026-03-20T04:29:10Z][INFO] audio timeline complete: duration=0.300000s, total_frames=9, fps=30
[2026-03-20T04:29:10Z][INFO] render request overrides: width=1280, height=720, requested_duration=0.000000
[2026-03-20T04:29:10Z][INFO] scene generation start: scene_id=nebula_space
[2026-03-20T04:29:10Z][INFO] scene generation complete: scene_name=nebula_space
[2026-03-20T04:29:10Z][INFO] renderer start: backend=Vulkan
[2026-03-20T04:29:10Z][INFO] renderer start complete
[2026-03-20T04:29:10Z][INFO] scene render bootstrap complete
[2026-03-20T04:29:10Z][INFO] frame generation start: prompt="Autonomous EchoesEngine render 1 | style=nebula | camera_motion=orbital sweep | duration=37.5s", style=Nebula Bloom
[2026-03-20T04:29:11Z][INFO] frame generation complete: ai job ready
[2026-03-20T04:29:11Z][INFO] frame export start: exporting scene-driven frames to C:\Users\Administrator\OneDrive\Documents\EchoesEngine_complete\EchoesEngine\renders\job-1
[2026-03-20T04:29:11Z][INFO] frame rendering: index=0/9
[2026-03-20T04:29:18Z][INFO] frame export complete: 9 frames captured
[2026-03-20T04:29:18Z][INFO] encoding start: output=C:\Users\Administrator\OneDrive\Documents\EchoesEngine_complete\EchoesEngine\renders\job-1\video.mp4
ffmpeg version 8.1-essentials_build-www.gyan.dev Copyright (c) 2000-2026 the FFmpeg developers
  built with gcc 15.2.0 (Rev11, Built by MSYS2 project)
  configuration: --enable-gpl --enable-version3 --enable-static --disable-w32threads --disable-autodetect --enable-cairo --enable-fontconfig --enable-iconv --enable-gnutls --enable-libxml2 --enable-gmp --enable-bzlib --enable-lzma --enable-zlib --enable-libsrt --enable-libssh --enable-libzmq --enable-avisynth --enable-sdl2 --enable-libwebp --enable-libx264 --enable-libx265 --enable-libxvid --enable-libaom --enable-libopenjpeg --enable-libvpx --enable-mediafoundation --enable-libass --enable-libfreetype --enable-libfribidi --enable-libharfbuzz --enable-libvidstab --enable-libvmaf --enable-libzimg --enable-amf --enable-cuda-llvm --enable-cuvid --enable-dxva2 --enable-d3d11va --enable-d3d12va --enable-ffnvcodec --enable-libvpl --enable-nvdec --enable-nvenc --enable-vaapi --enable-openal --enable-libgme --enable-libopenmpt --enable-libopencore-amrwb --enable-libmp3lame --enable-libtheora --enable-libvo-amrwbenc --enable-libgsm --enable-libopencore-amrnb --enable-libopus --enable-libspeex --enable-libvorbis --enable-librubberband
  libavutil      60. 26.100 / 60. 26.100
  libavcodec     62. 28.100 / 62. 28.100
  libavformat    62. 12.100 / 62. 12.100
  libavdevice    62.  3.100 / 62.  3.100
  libavfilter    11. 14.100 / 11. 14.100
  libswscale      9.  5.100 /  9.  5.100
  libswresample   6.  3.100 /  6.  3.100
Input #0, image2, from 'C:\Users\Administrator\OneDrive\Documents\EchoesEngine_complete\EchoesEngine\renders\job-1\frames\frame_%04d.ppm':
  Duration: 00:00:00.30, start: 0.000000, bitrate: N/A
  Stream #0:0: Video: ppm, rgb24, 1280x720, 30 fps, 30 tbr, 30 tbn
Stream mapping:
  Stream #0:0 -> #0:0 (ppm (native) -> h264 (libx264))
Press [q] to stop, [?] for help
[libx264 @ 0000028d6401d200] using cpu capabilities: MMX2 SSE2Fast SSSE3 SSE4.2 AVX FMA3 BMI2 AVX2
[libx264 @ 0000028d6401d200] profile High, level 3.1, 4:2:0, 8-bit
[libx264 @ 0000028d6401d200] 264 - core 165 r3223 0480cb0 - H.264/MPEG-4 AVC codec - Copyleft 2003-2025 - http://www.videolan.org/x264.html - options: cabac=1 ref=3 deblock=1:0:0 analyse=0x3:0x113 me=hex subme=7 psy=1 psy_rd=1.00:0.00 mixed_ref=1 me_range=16 chroma_me=1 trellis=1 8x8dct=1 cqm=0 deadzone=21,11 fast_pskip=1 chroma_qp_offset=-2 threads=12 lookahead_threads=2 sliced_threads=0 nr=0 decimate=1 interlaced=0 bluray_compat=0 constrained_intra=0 bframes=3 b_pyramid=2 b_adapt=1 b_bias=0 direct=1 weightb=1 open_gop=0 weightp=2 keyint=30 keyint_min=3 scenecut=40 intra_refresh=0 rc_lookahead=30 rc=crf mbtree=1 crf=20.0 qcomp=0.60 qpmin=0 qpmax=69 qpstep=4 ip_ratio=1.40 aq=1:1.00
Output #0, mp4, to 'C:\Users\Administrator\OneDrive\Documents\EchoesEngine_complete\EchoesEngine\renders\job-1\video.mp4':
  Metadata:
    encoder         : Lavf62.12.100
  Stream #0:0: Video: h264 (avc1 / 0x31637661), yuv420p(tv, progressive), 1280x720, q=2-31, 30 fps, 15360 tbn
    Metadata:
      encoder         : Lavc62.28.100 libx264
    Side data:
      CPB properties: bitrate max/min/avg: 0/0/0 buffer size: 0 vbv_delay: N/A
[mp4 @ 0000028d6401ae80] Starting second pass: moving the moov atom to the beginning of the file
[out#0/mp4 @ 0000028d6401ad80] video:28KiB audio:0KiB subtitle:0KiB other streams:0KiB global headers:0KiB muxing overhead: 3.144676%
frame=    9 fps=0.0 q=-1.0 Lsize=      29KiB time=00:00:00.23 bitrate=1016.6kbits/s speed=2.71x elapsed=0:00:00.08    
[libx264 @ 0000028d6401d200] frame I:1     Avg QP:17.08  size: 14000
[libx264 @ 0000028d6401d200] frame P:8     Avg QP:18.42  size:  1757
[libx264 @ 0000028d6401d200] mb I  I16..4: 55.2% 38.7%  6.1%
[libx264 @ 0000028d6401d200] mb P  I16..4:  0.6%  0.1%  0.0%  P16..4: 17.0%  2.3%  1.5%  0.0%  0.0%    skip:78.6%
[libx264 @ 0000028d6401d200] 8x8 transform intra:37.5% inter:77.1%
[libx264 @ 0000028d6401d200] coded y,uvDC,uvAC intra: 20.4% 67.6% 3.2% inter: 1.5% 5.5% 0.0%
[libx264 @ 0000028d6401d200] i16 v,h,dc,p:  3% 18%  1% 79%
[libx264 @ 0000028d6401d200] i8 v,h,dc,ddl,ddr,vr,hd,vl,hu: 17% 28% 14%  6%  9%  5% 10%  5%  6%
[libx264 @ 0000028d6401d200] i4 v,h,dc,ddl,ddr,vr,hd,vl,hu: 28% 30% 19%  3% 10%  3%  5%  1%  1%
[libx264 @ 0000028d6401d200] i8c dc,h,v,p: 35% 29% 12% 24%
[libx264 @ 0000028d6401d200] Weighted P-Frames: Y:0.0% UV:0.0%
[libx264 @ 0000028d6401d200] ref P L0: 88.3%  0.1%  9.1%  2.6%
[libx264 @ 0000028d6401d200] kb/s:748.24
[2026-03-20T04:29:18Z][INFO] encoding complete: video=C:\Users\Administrator\OneDrive\Documents\EchoesEngine_complete\EchoesEngine\renders\job-1\video.mp4
[2026-03-20T04:29:18Z][INFO] job complete: scene=nebula_space, style=Nebula Bloom, camera=(8.152980, 48.969322, 201.800262)
[2026-03-20T10:47:40Z][INFO] job start: render_log=C:\Users\Administrator\OneDrive\Documents\EchoesEngine_complete\EchoesEngine\jobs\job-1\render.log
[2026-03-20T10:47:40Z][INFO] audio loading: source=C:\Users\Administrator\OneDrive\Documents\EchoesEngine_complete\EchoesEngine\jobs/synthetic-test-0p3s.wav
[2026-03-20T10:47:40Z][INFO] audio loading ready: source=C:\Users\Administrator\OneDrive\Documents\EchoesEngine_complete\EchoesEngine\jobs/synthetic-test-0p3s.wav, analysis=C:\Users\Administrator\OneDrive\Documents\EchoesEngine_complete\EchoesEngine\jobs/synthetic-test-0p3s.wav
[2026-03-20T10:47:40Z][INFO] audio loading complete: samples=14400, sample_rate=48000
[2026-03-20T10:47:40Z][INFO] audio analysis complete: bass=0.000184, mid=0.999816, treble=0.000000, energy=0.088377, beat=false, tempo=96.000000
[2026-03-20T10:47:40Z][INFO] audio timeline complete: duration=5.000000s, total_frames=150, fps=30
[2026-03-20T10:47:40Z][INFO] render request overrides: width=640, height=360, requested_duration=5.000000
[2026-03-20T10:47:40Z][INFO] scene generation start: scene_id=nebula_space
[2026-03-20T10:47:40Z][INFO] scene generation complete: scene_name=nebula_space
[2026-03-20T10:47:40Z][INFO] renderer start: backend=Vulkan
[2026-03-20T10:47:40Z][INFO] renderer start complete
[2026-03-20T10:47:40Z][INFO] scene render bootstrap complete
[2026-03-20T10:47:40Z][INFO] frame generation start: prompt="SaaS contract verification render", style=Nebula Bloom
[2026-03-20T10:47:40Z][INFO] frame generation complete: ai job ready
[2026-03-20T10:47:40Z][INFO] frame export start: exporting scene-driven frames to C:\Users\Administrator\OneDrive\Documents\EchoesEngine_complete\EchoesEngine\renders\job-1
[2026-03-20T10:47:40Z][INFO] frame rendering: index=0/150
[2026-03-20T10:47:42Z][INFO] frame rendering: index=10/150
[2026-03-20T10:47:44Z][INFO] frame rendering: index=20/150
[2026-03-20T10:47:46Z][INFO] frame rendering: index=30/150
[2026-03-20T10:47:48Z][INFO] frame rendering: index=40/150
[2026-03-20T10:47:51Z][INFO] frame rendering: index=50/150
[2026-03-20T10:47:53Z][INFO] frame rendering: index=60/150
[2026-03-20T10:47:55Z][INFO] frame rendering: index=70/150
[2026-03-20T10:47:57Z][INFO] frame rendering: index=80/150
[2026-03-20T10:47:59Z][INFO] frame rendering: index=90/150
[2026-03-20T10:48:01Z][INFO] frame rendering: index=100/150
[2026-03-20T10:48:03Z][INFO] frame rendering: index=110/150
[2026-03-20T10:48:05Z][INFO] frame rendering: index=120/150
[2026-03-20T10:48:07Z][INFO] frame rendering: index=130/150
[2026-03-20T10:48:09Z][INFO] frame rendering: index=140/150
[2026-03-20T10:48:11Z][INFO] frame export complete: 150 frames captured
[2026-03-20T10:48:11Z][INFO] encoding start: output=C:\Users\Administrator\OneDrive\Documents\EchoesEngine_complete\EchoesEngine\renders\job-1\video.mp4
ffmpeg version 8.1-essentials_build-www.gyan.dev Copyright (c) 2000-2026 the FFmpeg developers
  built with gcc 15.2.0 (Rev11, Built by MSYS2 project)
  configuration: --enable-gpl --enable-version3 --enable-static --disable-w32threads --disable-autodetect --enable-cairo --enable-fontconfig --enable-iconv --enable-gnutls --enable-libxml2 --enable-gmp --enable-bzlib --enable-lzma --enable-zlib --enable-libsrt --enable-libssh --enable-libzmq --enable-avisynth --enable-sdl2 --enable-libwebp --enable-libx264 --enable-libx265 --enable-libxvid --enable-libaom --enable-libopenjpeg --enable-libvpx --enable-mediafoundation --enable-libass --enable-libfreetype --enable-libfribidi --enable-libharfbuzz --enable-libvidstab --enable-libvmaf --enable-libzimg --enable-amf --enable-cuda-llvm --enable-cuvid --enable-dxva2 --enable-d3d11va --enable-d3d12va --enable-ffnvcodec --enable-libvpl --enable-nvdec --enable-nvenc --enable-vaapi --enable-openal --enable-libgme --enable-libopenmpt --enable-libopencore-amrwb --enable-libmp3lame --enable-libtheora --enable-libvo-amrwbenc --enable-libgsm --enable-libopencore-amrnb --enable-libopus --enable-libspeex --enable-libvorbis --enable-librubberband
  libavutil      60. 26.100 / 60. 26.100
  libavcodec     62. 28.100 / 62. 28.100
  libavformat    62. 12.100 / 62. 12.100
  libavdevice    62.  3.100 / 62.  3.100
  libavfilter    11. 14.100 / 11. 14.100
  libswscale      9.  5.100 /  9.  5.100
  libswresample   6.  3.100 /  6.  3.100
Input #0, image2, from 'C:\Users\Administrator\OneDrive\Documents\EchoesEngine_complete\EchoesEngine\renders\job-1\frames\frame_%04d.ppm':
  Duration: 00:00:05.00, start: 0.000000, bitrate: N/A
  Stream #0:0: Video: ppm, rgb24, 640x360, 30 fps, 30 tbr, 30 tbn
Stream mapping:
  Stream #0:0 -> #0:0 (ppm (native) -> h264 (libx264))
Press [q] to stop, [?] for help
[libx264 @ 000002bd7e1bea40] using cpu capabilities: MMX2 SSE2Fast SSSE3 SSE4.2 AVX FMA3 BMI2 AVX2
[libx264 @ 000002bd7e1bea40] profile High, level 3.0, 4:2:0, 8-bit
[libx264 @ 000002bd7e1bea40] 264 - core 165 r3223 0480cb0 - H.264/MPEG-4 AVC codec - Copyleft 2003-2025 - http://www.videolan.org/x264.html - options: cabac=1 ref=3 deblock=1:0:0 analyse=0x3:0x113 me=hex subme=7 psy=1 psy_rd=1.00:0.00 mixed_ref=1 me_range=16 chroma_me=1 trellis=1 8x8dct=1 cqm=0 deadzone=21,11 fast_pskip=1 chroma_qp_offset=-2 threads=11 lookahead_threads=1 sliced_threads=0 nr=0 decimate=1 interlaced=0 bluray_compat=0 constrained_intra=0 bframes=3 b_pyramid=2 b_adapt=1 b_bias=0 direct=1 weightb=1 open_gop=0 weightp=2 keyint=30 keyint_min=3 scenecut=40 intra_refresh=0 rc_lookahead=30 rc=crf mbtree=1 crf=20.0 qcomp=0.60 qpmin=0 qpmax=69 qpstep=4 ip_ratio=1.40 aq=1:1.00
Output #0, mp4, to 'C:\Users\Administrator\OneDrive\Documents\EchoesEngine_complete\EchoesEngine\renders\job-1\video.mp4':
  Metadata:
    encoder         : Lavf62.12.100
  Stream #0:0: Video: h264 (avc1 / 0x31637661), yuv420p(tv, progressive), 640x360, q=2-31, 30 fps, 15360 tbn
    Metadata:
      encoder         : Lavc62.28.100 libx264
    Side data:
      CPB properties: bitrate max/min/avg: 0/0/0 buffer size: 0 vbv_delay: N/A
[mp4 @ 000002bd7e1bda80] Starting second pass: moving the moov atom to the beginning of the file
[out#0/mp4 @ 000002bd7defabc0] video:108KiB audio:0KiB subtitle:0KiB other streams:0KiB global headers:0KiB muxing overhead: 1.344788%
frame=  150 fps=0.0 q=-1.0 Lsize=     109KiB time=00:00:04.93 bitrate= 181.4kbits/s speed=19.4x elapsed=0:00:00.25    
[libx264 @ 000002bd7e1bea40] frame I:5     Avg QP:15.36  size:  6557
[libx264 @ 000002bd7e1bea40] frame P:145   Avg QP:17.86  size:   530
[libx264 @ 000002bd7e1bea40] mb I  I16..4: 43.2% 46.2% 10.5%
[libx264 @ 000002bd7e1bea40] mb P  I16..4:  0.2%  0.1%  0.0%  P16..4: 15.2%  2.9%  2.0%  0.0%  0.0%    skip:79.6%
[libx264 @ 000002bd7e1bea40] 8x8 transform intra:45.1% inter:89.1%
[libx264 @ 000002bd7e1bea40] coded y,uvDC,uvAC intra: 44.0% 84.1% 36.5% inter: 2.7% 5.9% 0.0%
[libx264 @ 000002bd7e1bea40] i16 v,h,dc,p:  1% 10%  0% 90%
[libx264 @ 000002bd7e1bea40] i8 v,h,dc,ddl,ddr,vr,hd,vl,hu: 13% 31%  9%  8%  9%  5% 10%  5%  9%
[libx264 @ 000002bd7e1bea40] i4 v,h,dc,ddl,ddr,vr,hd,vl,hu: 22% 34%  9%  5% 11%  4%  9%  3%  3%
[libx264 @ 000002bd7e1bea40] i8c dc,h,v,p: 21% 28%  9% 42%
[libx264 @ 000002bd7e1bea40] Weighted P-Frames: Y:0.0% UV:0.0%
[libx264 @ 000002bd7e1bea40] ref P L0: 87.8%  0.7%  9.0%  2.6%
[libx264 @ 000002bd7e1bea40] kb/s:175.46
[2026-03-20T10:48:12Z][INFO] encoding complete: video=C:\Users\Administrator\OneDrive\Documents\EchoesEngine_complete\EchoesEngine\renders\job-1\video.mp4
[2026-03-20T10:48:12Z][INFO] job complete: scene=nebula_space, style=Nebula Bloom, camera=(0.854976, 52.422230, 188.597107)
[2026-03-20T10:52:21Z][INFO] job start: render_log=C:\Users\Administrator\OneDrive\Documents\EchoesEngine_complete\EchoesEngine\jobs\job-1\render.log
[2026-03-20T10:52:21Z][INFO] audio loading: source=C:\Users\Administrator\OneDrive\Documents\EchoesEngine_complete\EchoesEngine\jobs/synthetic-test-0p3s.wav
[2026-03-20T10:52:21Z][INFO] audio loading ready: source=C:\Users\Administrator\OneDrive\Documents\EchoesEngine_complete\EchoesEngine\jobs/synthetic-test-0p3s.wav, analysis=C:\Users\Administrator\OneDrive\Documents\EchoesEngine_complete\EchoesEngine\jobs/synthetic-test-0p3s.wav
[2026-03-20T10:52:21Z][INFO] audio loading complete: samples=14400, sample_rate=48000
[2026-03-20T10:52:21Z][INFO] audio analysis complete: bass=0.000184, mid=0.999816, treble=0.000000, energy=0.088377, beat=false, tempo=96.000000
[2026-03-20T10:52:21Z][INFO] audio timeline complete: duration=5.000000s, total_frames=150, fps=30
[2026-03-20T10:52:21Z][INFO] render request overrides: width=640, height=360, requested_duration=5.000000
[2026-03-20T10:52:21Z][INFO] scene generation start: scene_id=cosmic_blackhole
[2026-03-20T10:52:21Z][INFO] scene generation complete: scene_name=cosmic_blackhole
[2026-03-20T10:52:21Z][INFO] renderer start: backend=Vulkan
[2026-03-20T10:52:21Z][INFO] renderer start complete
[2026-03-20T10:52:21Z][INFO] scene render bootstrap complete
[2026-03-20T10:52:21Z][INFO] frame generation start: prompt="Proxy contract verification render", style=Cosmic Wash
[2026-03-20T10:52:21Z][INFO] frame generation complete: ai job ready
[2026-03-20T10:52:21Z][INFO] frame export start: exporting scene-driven frames to C:\Users\Administrator\OneDrive\Documents\EchoesEngine_complete\EchoesEngine\renders\job-1
[2026-03-20T10:52:21Z][INFO] frame rendering: index=0/150
[2026-03-20T10:52:22Z][INFO] frame rendering: index=10/150
[2026-03-20T10:52:24Z][INFO] frame rendering: index=20/150
[2026-03-20T10:52:26Z][INFO] frame rendering: index=30/150
[2026-03-20T10:52:27Z][INFO] frame rendering: index=40/150
[2026-03-20T10:52:29Z][INFO] frame rendering: index=50/150
[2026-03-20T10:52:31Z][INFO] frame rendering: index=60/150
[2026-03-20T10:52:32Z][INFO] frame rendering: index=70/150
[2026-03-20T10:52:34Z][INFO] frame rendering: index=80/150
[2026-03-20T10:52:35Z][INFO] frame rendering: index=90/150
[2026-03-20T10:52:37Z][INFO] frame rendering: index=100/150
[2026-03-20T10:52:39Z][INFO] frame rendering: index=110/150
[2026-03-20T10:52:40Z][INFO] frame rendering: index=120/150
[2026-03-20T10:52:42Z][INFO] frame rendering: index=130/150
[2026-03-20T10:52:44Z][INFO] frame rendering: index=140/150
[2026-03-20T10:52:45Z][INFO] frame export complete: 150 frames captured
[2026-03-20T10:52:45Z][INFO] encoding start: output=C:\Users\Administrator\OneDrive\Documents\EchoesEngine_complete\EchoesEngine\renders\job-1\video.mp4
ffmpeg version 8.1-essentials_build-www.gyan.dev Copyright (c) 2000-2026 the FFmpeg developers
  built with gcc 15.2.0 (Rev11, Built by MSYS2 project)
  configuration: --enable-gpl --enable-version3 --enable-static --disable-w32threads --disable-autodetect --enable-cairo --enable-fontconfig --enable-iconv --enable-gnutls --enable-libxml2 --enable-gmp --enable-bzlib --enable-lzma --enable-zlib --enable-libsrt --enable-libssh --enable-libzmq --enable-avisynth --enable-sdl2 --enable-libwebp --enable-libx264 --enable-libx265 --enable-libxvid --enable-libaom --enable-libopenjpeg --enable-libvpx --enable-mediafoundation --enable-libass --enable-libfreetype --enable-libfribidi --enable-libharfbuzz --enable-libvidstab --enable-libvmaf --enable-libzimg --enable-amf --enable-cuda-llvm --enable-cuvid --enable-dxva2 --enable-d3d11va --enable-d3d12va --enable-ffnvcodec --enable-libvpl --enable-nvdec --enable-nvenc --enable-vaapi --enable-openal --enable-libgme --enable-libopenmpt --enable-libopencore-amrwb --enable-libmp3lame --enable-libtheora --enable-libvo-amrwbenc --enable-libgsm --enable-libopencore-amrnb --enable-libopus --enable-libspeex --enable-libvorbis --enable-librubberband
  libavutil      60. 26.100 / 60. 26.100
  libavcodec     62. 28.100 / 62. 28.100
  libavformat    62. 12.100 / 62. 12.100
  libavdevice    62.  3.100 / 62.  3.100
  libavfilter    11. 14.100 / 11. 14.100
  libswscale      9.  5.100 /  9.  5.100
  libswresample   6.  3.100 /  6.  3.100
Input #0, image2, from 'C:\Users\Administrator\OneDrive\Documents\EchoesEngine_complete\EchoesEngine\renders\job-1\frames\frame_%04d.ppm':
  Duration: 00:00:05.00, start: 0.000000, bitrate: N/A
  Stream #0:0: Video: ppm, rgb24, 640x360, 30 fps, 30 tbr, 30 tbn
Stream mapping:
  Stream #0:0 -> #0:0 (ppm (native) -> h264 (libx264))
Press [q] to stop, [?] for help
[libx264 @ 00000251d466ea40] using cpu capabilities: MMX2 SSE2Fast SSSE3 SSE4.2 AVX FMA3 BMI2 AVX2
[libx264 @ 00000251d466ea40] profile High, level 3.0, 4:2:0, 8-bit
[libx264 @ 00000251d466ea40] 264 - core 165 r3223 0480cb0 - H.264/MPEG-4 AVC codec - Copyleft 2003-2025 - http://www.videolan.org/x264.html - options: cabac=1 ref=3 deblock=1:0:0 analyse=0x3:0x113 me=hex subme=7 psy=1 psy_rd=1.00:0.00 mixed_ref=1 me_range=16 chroma_me=1 trellis=1 8x8dct=1 cqm=0 deadzone=21,11 fast_pskip=1 chroma_qp_offset=-2 threads=11 lookahead_threads=1 sliced_threads=0 nr=0 decimate=1 interlaced=0 bluray_compat=0 constrained_intra=0 bframes=3 b_pyramid=2 b_adapt=1 b_bias=0 direct=1 weightb=1 open_gop=0 weightp=2 keyint=30 keyint_min=3 scenecut=40 intra_refresh=0 rc_lookahead=30 rc=crf mbtree=1 crf=20.0 qcomp=0.60 qpmin=0 qpmax=69 qpstep=4 ip_ratio=1.40 aq=1:1.00
Output #0, mp4, to 'C:\Users\Administrator\OneDrive\Documents\EchoesEngine_complete\EchoesEngine\renders\job-1\video.mp4':
  Metadata:
    encoder         : Lavf62.12.100
  Stream #0:0: Video: h264 (avc1 / 0x31637661), yuv420p(tv, progressive), 640x360, q=2-31, 30 fps, 15360 tbn
    Metadata:
      encoder         : Lavc62.28.100 libx264
    Side data:
      CPB properties: bitrate max/min/avg: 0/0/0 buffer size: 0 vbv_delay: N/A
[mp4 @ 00000251d466da80] Starting second pass: moving the moov atom to the beginning of the file
[out#0/mp4 @ 00000251d43aabc0] video:104KiB audio:0KiB subtitle:0KiB other streams:0KiB global headers:0KiB muxing overhead: 2.007420%
frame=  150 fps=0.0 q=-1.0 Lsize=     107KiB time=00:00:04.93 bitrate= 177.0kbits/s speed=16.3x elapsed=0:00:00.30    
[libx264 @ 00000251d466ea40] frame I:5     Avg QP:13.36  size:  9076
[libx264 @ 00000251d466ea40] frame P:85    Avg QP:16.27  size:   604
[libx264 @ 00000251d466ea40] frame B:60    Avg QP:17.16  size:   160
[libx264 @ 00000251d466ea40] consecutive B-frames: 46.7%  0.0%  0.0% 53.3%
[libx264 @ 00000251d466ea40] mb I  I16..4: 11.9% 66.7% 21.4%
[libx264 @ 00000251d466ea40] mb P  I16..4:  0.3%  0.4%  0.0%  P16..4: 19.2%  4.1%  1.2%  0.0%  0.0%    skip:74.8%
[libx264 @ 00000251d466ea40] mb B  I16..4:  0.0%  0.0%  0.0%  B16..8: 16.6%  0.2%  0.0%  direct: 0.0%  skip:83.1%  L0:35.0% L1:64.7% BI: 0.3%
[libx264 @ 00000251d466ea40] 8x8 transform intra:65.4% inter:73.5%
[libx264 @ 00000251d466ea40] coded y,uvDC,uvAC intra: 33.5% 78.0% 56.5% inter: 0.9% 2.6% 0.0%
[libx264 @ 00000251d466ea40] i16 v,h,dc,p: 12% 36%  7% 45%
[libx264 @ 00000251d466ea40] i8 v,h,dc,ddl,ddr,vr,hd,vl,hu: 14% 23% 18%  8%  8%  5% 11%  5%  7%
[libx264 @ 00000251d466ea40] i4 v,h,dc,ddl,ddr,vr,hd,vl,hu: 25% 32% 13%  4% 11%  4%  8%  2%  2%
[libx264 @ 00000251d466ea40] i8c dc,h,v,p: 44% 30% 13% 13%
[libx264 @ 00000251d466ea40] Weighted P-Frames: Y:0.0% UV:0.0%
[libx264 @ 00000251d466ea40] ref P L0: 78.1%  2.3% 13.8%  5.9%
[libx264 @ 00000251d466ea40] ref B L0: 89.3%  9.1%  1.6%
[libx264 @ 00000251d466ea40] ref B L1: 98.1%  1.9%
[libx264 @ 00000251d466ea40] kb/s:170.10
[2026-03-20T10:52:46Z][INFO] encoding complete: video=C:\Users\Administrator\OneDrive\Documents\EchoesEngine_complete\EchoesEngine\renders\job-1\video.mp4
[2026-03-20T10:52:46Z][INFO] job complete: scene=cosmic_blackhole, style=Cosmic Wash, camera=(6.244386, 42.422226, 103.652382)
[2026-03-20T11:02:17Z][INFO] job start: render_log=C:\Users\Administrator\OneDrive\Documents\EchoesEngine_complete\EchoesEngine\jobs\job-1\render.log
[2026-03-20T11:02:18Z][INFO] audio loading: source=C:\Users\Administrator\OneDrive\Documents\EchoesEngine_complete\EchoesEngine\jobs/synthetic-test-0p3s.wav
[2026-03-20T11:02:18Z][INFO] audio loading ready: source=C:\Users\Administrator\OneDrive\Documents\EchoesEngine_complete\EchoesEngine\jobs/synthetic-test-0p3s.wav, analysis=C:\Users\Administrator\OneDrive\Documents\EchoesEngine_complete\EchoesEngine\jobs/synthetic-test-0p3s.wav
[2026-03-20T11:02:18Z][INFO] audio loading complete: samples=14400, sample_rate=48000
[2026-03-20T11:02:18Z][INFO] audio analysis complete: bass=0.000184, mid=0.999816, treble=0.000000, energy=0.088377, beat=false, tempo=96.000000
[2026-03-20T11:02:18Z][INFO] audio timeline complete: duration=5.000000s, total_frames=150, fps=30
[2026-03-20T11:02:18Z][INFO] render request overrides: width=640, height=360, requested_duration=5.000000
[2026-03-20T11:02:18Z][INFO] scene generation start: scene_id=cosmic_blackhole
[2026-03-20T11:02:18Z][INFO] scene generation complete: scene_name=cosmic_blackhole
[2026-03-20T11:02:18Z][INFO] renderer start: backend=Vulkan
[2026-03-20T11:02:18Z][INFO] renderer start complete
[2026-03-20T11:02:18Z][INFO] scene render bootstrap complete
[2026-03-20T11:02:18Z][INFO] frame generation start: prompt="Final SaaS verification render", style=Cosmic Wash
[2026-03-20T11:02:18Z][INFO] frame generation complete: ai job ready
[2026-03-20T11:02:18Z][INFO] frame export start: exporting scene-driven frames to C:\Users\Administrator\OneDrive\Documents\EchoesEngine_complete\EchoesEngine\renders\job-1
[2026-03-20T11:02:18Z][INFO] frame rendering: index=0/150
[2026-03-20T11:02:19Z][INFO] frame rendering: index=10/150
[2026-03-20T11:02:21Z][INFO] frame rendering: index=20/150
[2026-03-20T11:02:22Z][INFO] frame rendering: index=30/150
[2026-03-20T11:02:24Z][INFO] frame rendering: index=40/150
[2026-03-20T11:02:26Z][INFO] frame rendering: index=50/150
[2026-03-20T11:02:27Z][INFO] frame rendering: index=60/150
[2026-03-20T11:02:29Z][INFO] frame rendering: index=70/150
[2026-03-20T11:02:31Z][INFO] frame rendering: index=80/150
[2026-03-20T11:02:32Z][INFO] frame rendering: index=90/150
[2026-03-20T11:02:34Z][INFO] frame rendering: index=100/150
[2026-03-20T11:02:35Z][INFO] frame rendering: index=110/150
[2026-03-20T11:02:37Z][INFO] frame rendering: index=120/150
[2026-03-20T11:02:39Z][INFO] frame rendering: index=130/150
[2026-03-20T11:02:40Z][INFO] frame rendering: index=140/150
[2026-03-20T11:02:42Z][INFO] frame export complete: 150 frames captured
[2026-03-20T11:02:42Z][INFO] encoding start: output=C:\Users\Administrator\OneDrive\Documents\EchoesEngine_complete\EchoesEngine\renders\job-1\video.mp4
ffmpeg version 8.1-essentials_build-www.gyan.dev Copyright (c) 2000-2026 the FFmpeg developers
  built with gcc 15.2.0 (Rev11, Built by MSYS2 project)
  configuration: --enable-gpl --enable-version3 --enable-static --disable-w32threads --disable-autodetect --enable-cairo --enable-fontconfig --enable-iconv --enable-gnutls --enable-libxml2 --enable-gmp --enable-bzlib --enable-lzma --enable-zlib --enable-libsrt --enable-libssh --enable-libzmq --enable-avisynth --enable-sdl2 --enable-libwebp --enable-libx264 --enable-libx265 --enable-libxvid --enable-libaom --enable-libopenjpeg --enable-libvpx --enable-mediafoundation --enable-libass --enable-libfreetype --enable-libfribidi --enable-libharfbuzz --enable-libvidstab --enable-libvmaf --enable-libzimg --enable-amf --enable-cuda-llvm --enable-cuvid --enable-dxva2 --enable-d3d11va --enable-d3d12va --enable-ffnvcodec --enable-libvpl --enable-nvdec --enable-nvenc --enable-vaapi --enable-openal --enable-libgme --enable-libopenmpt --enable-libopencore-amrwb --enable-libmp3lame --enable-libtheora --enable-libvo-amrwbenc --enable-libgsm --enable-libopencore-amrnb --enable-libopus --enable-libspeex --enable-libvorbis --enable-librubberband
  libavutil      60. 26.100 / 60. 26.100
  libavcodec     62. 28.100 / 62. 28.100
  libavformat    62. 12.100 / 62. 12.100
  libavdevice    62.  3.100 / 62.  3.100
  libavfilter    11. 14.100 / 11. 14.100
  libswscale      9.  5.100 /  9.  5.100
  libswresample   6.  3.100 /  6.  3.100
Input #0, image2, from 'C:\Users\Administrator\OneDrive\Documents\EchoesEngine_complete\EchoesEngine\renders\job-1\frames\frame_%04d.ppm':
  Duration: 00:00:05.00, start: 0.000000, bitrate: N/A
  Stream #0:0: Video: ppm, rgb24, 640x360, 30 fps, 30 tbr, 30 tbn
Stream mapping:
  Stream #0:0 -> #0:0 (ppm (native) -> h264 (libx264))
Press [q] to stop, [?] for help
[libx264 @ 00000253dc35ea40] using cpu capabilities: MMX2 SSE2Fast SSSE3 SSE4.2 AVX FMA3 BMI2 AVX2
[libx264 @ 00000253dc35ea40] profile High, level 3.0, 4:2:0, 8-bit
[libx264 @ 00000253dc35ea40] 264 - core 165 r3223 0480cb0 - H.264/MPEG-4 AVC codec - Copyleft 2003-2025 - http://www.videolan.org/x264.html - options: cabac=1 ref=3 deblock=1:0:0 analyse=0x3:0x113 me=hex subme=7 psy=1 psy_rd=1.00:0.00 mixed_ref=1 me_range=16 chroma_me=1 trellis=1 8x8dct=1 cqm=0 deadzone=21,11 fast_pskip=1 chroma_qp_offset=-2 threads=11 lookahead_threads=1 sliced_threads=0 nr=0 decimate=1 interlaced=0 bluray_compat=0 constrained_intra=0 bframes=3 b_pyramid=2 b_adapt=1 b_bias=0 direct=1 weightb=1 open_gop=0 weightp=2 keyint=30 keyint_min=3 scenecut=40 intra_refresh=0 rc_lookahead=30 rc=crf mbtree=1 crf=20.0 qcomp=0.60 qpmin=0 qpmax=69 qpstep=4 ip_ratio=1.40 aq=1:1.00
Output #0, mp4, to 'C:\Users\Administrator\OneDrive\Documents\EchoesEngine_complete\EchoesEngine\renders\job-1\video.mp4':
  Metadata:
    encoder         : Lavf62.12.100
  Stream #0:0: Video: h264 (avc1 / 0x31637661), yuv420p(tv, progressive), 640x360, q=2-31, 30 fps, 15360 tbn
    Metadata:
      encoder         : Lavc62.28.100 libx264
    Side data:
      CPB properties: bitrate max/min/avg: 0/0/0 buffer size: 0 vbv_delay: N/A
[mp4 @ 00000253dc35da80] Starting second pass: moving the moov atom to the beginning of the file
[out#0/mp4 @ 00000253da8babc0] video:104KiB audio:0KiB subtitle:0KiB other streams:0KiB global headers:0KiB muxing overhead: 2.007420%
frame=  150 fps=0.0 q=-1.0 Lsize=     107KiB time=00:00:04.93 bitrate= 177.0kbits/s speed=15.8x elapsed=0:00:00.31    
[libx264 @ 00000253dc35ea40] frame I:5     Avg QP:13.36  size:  9076
[libx264 @ 00000253dc35ea40] frame P:85    Avg QP:16.27  size:   604
[libx264 @ 00000253dc35ea40] frame B:60    Avg QP:17.16  size:   160
[libx264 @ 00000253dc35ea40] consecutive B-frames: 46.7%  0.0%  0.0% 53.3%
[libx264 @ 00000253dc35ea40] mb I  I16..4: 11.9% 66.7% 21.4%
[libx264 @ 00000253dc35ea40] mb P  I16..4:  0.3%  0.4%  0.0%  P16..4: 19.2%  4.1%  1.2%  0.0%  0.0%    skip:74.8%
[libx264 @ 00000253dc35ea40] mb B  I16..4:  0.0%  0.0%  0.0%  B16..8: 16.6%  0.2%  0.0%  direct: 0.0%  skip:83.1%  L0:35.0% L1:64.7% BI: 0.3%
[libx264 @ 00000253dc35ea40] 8x8 transform intra:65.4% inter:73.5%
[libx264 @ 00000253dc35ea40] coded y,uvDC,uvAC intra: 33.5% 78.0% 56.5% inter: 0.9% 2.6% 0.0%
[libx264 @ 00000253dc35ea40] i16 v,h,dc,p: 12% 36%  7% 45%
[libx264 @ 00000253dc35ea40] i8 v,h,dc,ddl,ddr,vr,hd,vl,hu: 14% 23% 18%  8%  8%  5% 11%  5%  7%
[libx264 @ 00000253dc35ea40] i4 v,h,dc,ddl,ddr,vr,hd,vl,hu: 25% 32% 13%  4% 11%  4%  8%  2%  2%
[libx264 @ 00000253dc35ea40] i8c dc,h,v,p: 44% 30% 13% 13%
[libx264 @ 00000253dc35ea40] Weighted P-Frames: Y:0.0% UV:0.0%
[libx264 @ 00000253dc35ea40] ref P L0: 78.1%  2.3% 13.8%  5.9%
[libx264 @ 00000253dc35ea40] ref B L0: 89.3%  9.1%  1.6%
[libx264 @ 00000253dc35ea40] ref B L1: 98.1%  1.9%
[libx264 @ 00000253dc35ea40] kb/s:170.10
[2026-03-20T11:02:43Z][INFO] encoding complete: video=C:\Users\Administrator\OneDrive\Documents\EchoesEngine_complete\EchoesEngine\renders\job-1\video.mp4
[2026-03-20T11:02:43Z][INFO] job complete: scene=cosmic_blackhole, style=Cosmic Wash, camera=(6.244386, 42.422226, 103.652382)
